<mxfile host="app.diagrams.net" modified="2024-02-12T07:12:35.655Z" agent="Mozilla/5.0 (Windows NT 10.0; Win64; x64) AppleWebKit/537.36 (KHTML, like Gecko) Chrome/121.0.0.0 Safari/537.36" etag="z4aQCVNtdruT7oXgCT5a" version="23.0.2" type="device">
  <diagram id="kgpKYQtTHZ0yAKxKKP6v" name="Page-1">
    <mxGraphModel dx="2074" dy="1148" grid="1" gridSize="10" guides="1" tooltips="1" connect="1" arrows="1" fold="1" page="1" pageScale="1" pageWidth="850" pageHeight="1100" math="0" shadow="0">
      <root>
        <mxCell id="0" />
        <mxCell id="1" parent="0" />
        <mxCell id="OJxsd8Q3avGZ_XaQWwqa-1" value="" style="swimlane;startSize=0;fontSize=16;fillStyle=cross-hatch;" vertex="1" parent="1">
          <mxGeometry x="40" y="160" width="200" height="720" as="geometry" />
        </mxCell>
        <mxCell id="OJxsd8Q3avGZ_XaQWwqa-3" value="&lt;font style=&quot;font-size: 18px;&quot;&gt;start user&amp;nbsp;&lt;br&gt;&lt;span style=&quot;background-color: rgb(255, 255, 255); color: var(--color-neutral-10); font-family: var(--font-family-secondary); text-align: left;&quot;&gt;authentication&lt;/span&gt;&lt;/font&gt;&lt;br&gt;&amp;nbsp;" style="ellipse;whiteSpace=wrap;html=1;aspect=fixed;fontSize=16;" vertex="1" parent="OJxsd8Q3avGZ_XaQWwqa-1">
          <mxGeometry x="30" y="20" width="140" height="140" as="geometry" />
        </mxCell>
        <mxCell id="OJxsd8Q3avGZ_XaQWwqa-2" value="Client" style="text;strokeColor=none;fillColor=none;html=1;align=center;verticalAlign=middle;whiteSpace=wrap;rounded=0;fontSize=24;fontStyle=1" vertex="1" parent="1">
          <mxGeometry x="110" y="120" width="60" height="30" as="geometry" />
        </mxCell>
        <mxCell id="OJxsd8Q3avGZ_XaQWwqa-4" value="" style="endArrow=classic;html=1;rounded=0;fontSize=12;startSize=8;endSize=8;curved=1;exitX=1;exitY=0.5;exitDx=0;exitDy=0;entryX=0;entryY=0.5;entryDx=0;entryDy=0;" edge="1" parent="1" source="OJxsd8Q3avGZ_XaQWwqa-3" target="OJxsd8Q3avGZ_XaQWwqa-10">
          <mxGeometry width="50" height="50" relative="1" as="geometry">
            <mxPoint x="400" y="530" as="sourcePoint" />
            <mxPoint x="440" y="250" as="targetPoint" />
          </mxGeometry>
        </mxCell>
        <mxCell id="OJxsd8Q3avGZ_XaQWwqa-5" value="Login/register" style="edgeLabel;html=1;align=center;verticalAlign=middle;resizable=0;points=[];fontSize=16;" vertex="1" connectable="0" parent="OJxsd8Q3avGZ_XaQWwqa-4">
          <mxGeometry x="0.0105" y="1" relative="1" as="geometry">
            <mxPoint as="offset" />
          </mxGeometry>
        </mxCell>
        <mxCell id="OJxsd8Q3avGZ_XaQWwqa-6" value="" style="swimlane;startSize=0;fontSize=16;fillStyle=cross-hatch;" vertex="1" parent="1">
          <mxGeometry x="350" y="160" width="200" height="720" as="geometry" />
        </mxCell>
        <mxCell id="OJxsd8Q3avGZ_XaQWwqa-10" value="Successful?" style="rounded=0;whiteSpace=wrap;html=1;fontSize=16;" vertex="1" parent="OJxsd8Q3avGZ_XaQWwqa-6">
          <mxGeometry x="30" y="60" width="120" height="60" as="geometry" />
        </mxCell>
      </root>
    </mxGraphModel>
  </diagram>
</mxfile>
